<svg version="1.0" xmlns="http://www.w3.org/2000/svg"
 width="579.000000pt" height="431.000000pt" viewBox="0 0 579.000000 431.000000"
 preserveAspectRatio="xMidYMid meet">

<g transform="translate(0.000000,431.000000) scale(0.100000,-0.100000)"
 stroke="none">
<path d="M46 4238 c4 -7 125 -157 269 -333 144 -176 432 -529 640 -785 208
-256 468 -574 577 -708 110 -133 201 -248 204 -255 2 -7 -98 -138 -224 -292
-456 -560 -992 -1217 -1229 -1508 l-243 -297 408 0 407 0 605 742 c333 408
716 878 853 1045 l247 304 -442 542 c-243 298 -580 711 -748 917 -168 206
-354 435 -414 508 l-107 132 -405 0 c-322 0 -404 -3 -398 -12z" fill="#0affba"/>
<path d="M1540 4244 c0 -6 150 -191 1104 -1359 328 -401 595 -733 593 -737 -1
-4 -119 -150 -262 -325 -400 -490 -852 -1045 -1144 -1403 -145 -179 -271 -333
-279 -342 -14 -17 46 -18 1239 -17 l1254 0 171 212 c94 117 394 484 665 817
792 971 859 1054 859 1061 0 4 -51 70 -113 146 -62 76 -443 543 -847 1038
-403 495 -738 903 -744 907 -13 9 -2496 11 -2496 2z" fill="#ff478d"/>
</g>
</svg>
