<?xml version="1.0" standalone="no"?>
<!DOCTYPE svg PUBLIC "-//W3C//DTD SVG 20010904//EN"
 "http://www.w3.org/TR/2001/REC-SVG-20010904/DTD/svg10.dtd">
<svg version="1.0" xmlns="http://www.w3.org/2000/svg"
 width="500.000000pt" height="499.000000pt" viewBox="0 0 500.000000 499.000000"
 preserveAspectRatio="xMidYMid meet">

<g transform="translate(0.000000,499.000000) scale(0.100000,-0.100000)"
fill="#ffffff" stroke="none">
<path d="M2190 4736 l0 -204 -47 -7 c-77 -11 -260 -61 -367 -100 -550 -199
-998 -643 -1205 -1197 -38 -99 -87 -279 -108 -388 l-8 -45 -203 -3 -202 -2 0
-300 0 -300 203 -2 202 -3 17 -85 c81 -415 276 -781 569 -1072 176 -173 339
-289 554 -393 177 -85 302 -127 512 -171 l83 -17 2 -201 3 -201 303 -3 302 -2
0 204 0 203 108 23 c810 169 1434 788 1603 1590 12 58 23 111 25 118 3 9 52
12 204 12 l200 0 0 300 0 300 -200 0 c-152 0 -201 3 -204 13 -2 6 -13 59 -26
117 -111 529 -428 995 -880 1297 -213 142 -502 258 -757 303 l-73 13 0 204 0
203 -305 0 -305 0 0 -204z m5 -1068 l0 -253 303 -3 302 -2 0 255 0 255 28 -6
c66 -15 236 -76 294 -105 208 -104 422 -289 564 -485 100 -138 204 -364 230
-499 l6 -35 -251 0 -251 0 0 -300 0 -300 250 0 c213 0 250 -2 250 -15 0 -29
-79 -253 -113 -321 -114 -227 -328 -461 -553 -606 -105 -68 -265 -137 -386
-169 l-68 -17 0 254 0 254 -302 -2 -303 -3 -3 -251 -2 -252 -68 18 c-272 73
-509 223 -715 454 -99 111 -164 206 -224 329 -41 83 -92 221 -108 295 l-7 32
251 0 251 0 0 300 0 300 -250 0 c-139 0 -250 4 -250 9 0 23 52 185 84 260 138
326 447 636 776 777 61 26 233 82 255 83 6 1 10 -89 10 -251z"/>
<path d="M2389 2775 c-55 -18 -133 -83 -159 -135 -26 -51 -37 -132 -28 -204
20 -152 151 -254 314 -244 168 11 278 128 278 298 0 124 -62 228 -164 273 -58
26 -178 32 -241 12z"/>
</g>
</svg>
