<?xml version="1.0" encoding="UTF-8"?> 
<!DOCTYPE svg PUBLIC "-//W3C//DTD SVG 1.1//EN" "http://www.w3.org/Graphics/SVG/1.1/DTD/svg11.dtd">
<svg xmlns="http://www.w3.org/2000/svg" version="1.1" width="567px" height="440px" style="shape-rendering:geometricPrecision; text-rendering:geometricPrecision; image-rendering:optimizeQuality; fill-rule:evenodd; clip-rule:evenodd" xmlns:xlink="http://www.w3.org/1999/xlink">
<g><path style="opacity:1" fill="#00fff2" d="M 108.5,-0.5 C 120.5,-0.5 132.5,-0.5 144.5,-0.5C 147.175,0.355367 149.842,1.52203 152.5,3C 154.734,4.63787 156.067,6.80453 156.5,9.5C 156.685,17.2206 157.685,24.5539 159.5,31.5C 176.503,31.3334 193.503,31.5001 210.5,32C 214.344,33.3467 217.011,35.8467 218.5,39.5C 219.447,57.8059 219.78,76.1392 219.5,94.5C 261.5,94.5 303.5,94.5 345.5,94.5C 345.221,76.4724 345.554,58.4724 346.5,40.5C 347.732,35.8698 350.732,33.0364 355.5,32C 372.163,31.5001 388.83,31.3334 405.5,31.5C 407.45,26.2649 408.117,20.5982 407.5,14.5C 407.941,6.06244 412.275,1.06244 420.5,-0.5C 432.5,-0.5 444.5,-0.5 456.5,-0.5C 462.401,0.548713 466.568,3.88205 469,9.5C 470.094,16.9396 470.594,24.4396 470.5,32C 470.594,39.5604 470.094,47.0604 469,54.5C 466.643,59.367 462.809,62.0337 457.5,62.5C 440.833,62.5 424.167,62.5 407.5,62.5C 407.5,63.5 407.5,64.5 407.5,65.5C 407.5,85.1667 407.5,104.833 407.5,124.5C 425.015,125.235 442.681,125.902 460.5,126.5C 466.488,128.166 469.488,132.166 469.5,138.5C 469.5,154.833 469.5,171.167 469.5,187.5C 480.167,187.5 490.833,187.5 501.5,187.5C 501.5,160.5 501.5,133.5 501.5,106.5C 501.859,101.143 504.525,97.4765 509.5,95.5C 524.507,94.1839 539.507,94.1839 554.5,95.5C 560.557,97.5782 563.724,101.911 564,108.5C 564.667,150.833 564.667,193.167 564,235.5C 563.724,242.089 560.557,246.422 554.5,248.5C 536.528,249.446 518.528,249.779 500.5,249.5C 500.5,277.167 500.5,304.833 500.5,332.5C 498.811,339.847 494.144,343.514 486.5,343.5C 470.5,343.5 454.5,343.5 438.5,343.5C 438.5,370.167 438.5,396.833 438.5,423.5C 438.073,430.593 434.406,434.926 427.5,436.5C 392.142,436.807 356.809,436.474 321.5,435.5C 317.287,433.954 314.953,430.954 314.5,426.5C 314.234,411.804 314.567,397.138 315.5,382.5C 317.243,378.611 320.243,376.111 324.5,375C 341.497,374.5 358.497,374.333 375.5,374.5C 376.494,364.347 376.828,354.014 376.5,343.5C 314.167,343.5 251.833,343.5 189.5,343.5C 188.506,353.987 188.172,364.654 188.5,375.5C 205.833,375.5 223.167,375.5 240.5,375.5C 245.647,376.473 249.147,379.473 251,384.5C 253,398.833 253,413.167 251,427.5C 249.147,432.527 245.647,435.527 240.5,436.5C 205.142,436.807 169.809,436.474 134.5,435.5C 130.74,434.074 128.407,431.407 127.5,427.5C 127.5,399.167 127.5,370.833 127.5,342.5C 109.5,342.5 91.5,342.5 73.5,342.5C 67.6119,340.744 64.6119,336.744 64.5,330.5C 64.5,303.5 64.5,276.5 64.5,249.5C 46.4724,249.779 28.4724,249.446 10.5,248.5C 6.39807,246.734 3.73141,243.734 2.5,239.5C 2.18675,193.477 2.52008,147.477 3.5,101.5C 4.91968,98.4123 7.25301,96.4123 10.5,95.5C 24.4707,94.571 38.4707,94.2377 52.5,94.5C 58.3076,95.469 62.1409,98.8024 64,104.5C 64.5,131.831 64.6666,159.165 64.5,186.5C 74.6532,187.494 84.9865,187.828 95.5,187.5C 95.5,171.5 95.5,155.5 95.5,139.5C 95.7411,131.01 100.074,126.343 108.5,125.5C 125.167,125.5 141.833,125.5 158.5,125.5C 158.5,104.5 158.5,83.5 158.5,62.5C 141.833,62.5 125.167,62.5 108.5,62.5C 102.663,61.8304 98.496,58.8304 96,53.5C 94.4328,40.5481 94.0995,27.5481 95,14.5C 96.2426,6.43004 100.743,1.43004 108.5,-0.5 Z"/></g>
<g><path style="opacity:0.274" fill="#e1e3e7" d="M 156.5,9.5 C 157.268,10.2625 157.768,11.2625 158,12.5C 158.207,18.9135 158.707,25.2469 159.5,31.5C 157.685,24.5539 156.685,17.2206 156.5,9.5 Z"/></g>
<g><path style="opacity:0.034" fill="#f9f9fa" d="M 407.5,14.5 C 408.117,20.5982 407.45,26.2649 405.5,31.5C 406.126,25.7322 406.793,20.0655 407.5,14.5 Z"/></g>
<g><path style="opacity:0.307" fill="#e2e4e8" d="M 457.5,62.5 C 440.77,62.8626 424.103,63.8626 407.5,65.5C 407.5,64.5 407.5,63.5 407.5,62.5C 424.167,62.5 440.833,62.5 457.5,62.5 Z"/></g>
<g><path style="opacity:0.687" fill="#cfd3da" d="M 108.5,62.5 C 125.167,62.5 141.833,62.5 158.5,62.5C 158.5,83.5 158.5,104.5 158.5,125.5C 141.833,125.5 125.167,125.5 108.5,125.5C 124.658,124.504 140.991,124.17 157.5,124.5C 157.5,104.167 157.5,83.8333 157.5,63.5C 140.991,63.8298 124.658,63.4964 108.5,62.5 Z"/></g>
<g><path style="opacity:0.492" fill="#d3d6dd" d="M 52.5,94.5 C 38.4707,94.2377 24.4707,94.571 10.5,95.5C 11.2625,94.7321 12.2625,94.2321 13.5,94C 26.6732,93.1731 39.6732,93.3398 52.5,94.5 Z"/></g>
<g><path style="opacity:0.515" fill="#cfd2d9" d="M 218.5,39.5 C 219.268,40.2625 219.768,41.2625 220,42.5C 220.174,59.4072 220.674,76.2405 221.5,93C 262.499,93.5 303.499,93.6667 344.5,93.5C 344.333,76.83 344.5,60.1633 345,43.5C 345.232,42.2625 345.732,41.2625 346.5,40.5C 345.554,58.4724 345.221,76.4724 345.5,94.5C 303.5,94.5 261.5,94.5 219.5,94.5C 219.78,76.1392 219.447,57.8059 218.5,39.5 Z"/></g>
<g><path style="opacity:0.503" fill="#d5d8de" d="M 554.5,95.5 C 539.507,94.1839 524.507,94.1839 509.5,95.5C 510.263,94.7321 511.263,94.2321 512.5,94C 525.833,93.3333 539.167,93.3333 552.5,94C 553.416,94.2784 554.082,94.7784 554.5,95.5 Z"/></g>
<g><path style="opacity:0.707" fill="#c3c9d2" d="M 3.5,101.5 C 2.52008,147.477 2.18675,193.477 2.5,239.5C 1.33519,194.669 1.16852,149.669 2,104.5C 2.23209,103.263 2.73209,102.263 3.5,101.5 Z"/></g>
<g><path style="opacity:0.334" fill="#dddfe4" d="M 407.5,124.5 C 424.17,124.333 440.837,124.5 457.5,125C 458.737,125.232 459.737,125.732 460.5,126.5C 442.681,125.902 425.015,125.235 407.5,124.5 Z"/></g>
<g><path style="opacity:0.032" fill="#f4f4f6" d="M 95.5,139.5 C 95.5,155.5 95.5,171.5 95.5,187.5C 84.9865,187.828 74.6532,187.494 64.5,186.5C 74.5,186.5 84.5,186.5 94.5,186.5C 94.1704,170.658 94.5037,154.991 95.5,139.5 Z"/></g>
<g><path style="opacity:0.028" fill="#e6e8eb" d="M 501.5,106.5 C 501.5,133.5 501.5,160.5 501.5,187.5C 490.833,187.5 480.167,187.5 469.5,187.5C 469.5,171.167 469.5,154.833 469.5,138.5C 470.496,154.325 470.83,170.325 470.5,186.5C 480.5,186.5 490.5,186.5 500.5,186.5C 500.169,159.661 500.502,132.995 501.5,106.5 Z"/></g>
<g><path style="opacity:1" fill="#f885e8" d="M 171.5,187.5 C 183.171,187.333 194.838,187.5 206.5,188C 213.882,189.049 218.382,193.216 220,200.5C 220.667,223.167 220.667,245.833 220,268.5C 218.266,276.233 213.432,280.399 205.5,281C 192.785,281.897 180.118,281.564 167.5,280C 161.643,277.489 158.476,272.989 158,266.5C 157.333,245.167 157.333,223.833 158,202.5C 158.903,194.103 163.403,189.103 171.5,187.5 Z"/></g>
<g><path style="opacity:1" fill="#f885e8" d="M 358.5,187.5 C 370.171,187.333 381.838,187.5 393.5,188C 399.286,188.453 403.453,191.286 406,196.5C 407.615,219.791 407.948,243.125 407,266.5C 406.224,275.276 401.391,280.11 392.5,281C 381.5,281.667 370.5,281.667 359.5,281C 352.987,280.16 348.487,276.66 346,270.5C 345.333,246.167 345.333,221.833 346,197.5C 348.795,192.364 352.962,189.031 358.5,187.5 Z"/></g>
<g><path style="opacity:0.255" fill="#e0e2e7" d="M 10.5,248.5 C 28.4724,249.446 46.4724,249.779 64.5,249.5C 64.5,276.5 64.5,303.5 64.5,330.5C 63.5021,304.005 63.1688,277.339 63.5,250.5C 46.83,250.667 30.1633,250.5 13.5,250C 12.2625,249.768 11.2625,249.268 10.5,248.5 Z"/></g>
<g><path style="opacity:0.541" fill="#d0d4db" d="M 554.5,248.5 C 553.737,249.268 552.737,249.768 551.5,250C 534.837,250.5 518.17,250.667 501.5,250.5C 501.831,278.005 501.498,305.338 500.5,332.5C 500.5,304.833 500.5,277.167 500.5,249.5C 518.528,249.779 536.528,249.446 554.5,248.5 Z"/></g>
<g><path style="opacity:0.139" fill="#edeef1" d="M 78.5,343.5 C 94.8683,342.849 110.868,343.515 126.5,345.5C 110.402,344.847 94.4019,344.181 78.5,343.5 Z"/></g>
<g><path style="opacity:0.863" fill="#bdc2cb" d="M 73.5,342.5 C 91.5,342.5 109.5,342.5 127.5,342.5C 127.5,370.833 127.5,399.167 127.5,427.5C 126.13,422.734 125.463,417.734 125.5,412.5C 126.465,390.071 126.798,367.737 126.5,345.5C 110.868,343.515 94.8683,342.849 78.5,343.5C 76.5853,343.784 74.9187,343.451 73.5,342.5 Z"/></g>
<g><path style="opacity:0.116" fill="#ebedf0" d="M 189.5,344.5 C 189.5,344.167 189.5,343.833 189.5,343.5C 251.833,343.5 314.167,343.5 376.5,343.5C 376.828,354.014 376.494,364.347 375.5,374.5C 375.5,364.5 375.5,354.5 375.5,344.5C 313.5,344.5 251.5,344.5 189.5,344.5 Z"/></g>
<g><path style="opacity:0.186" fill="#eaecef" d="M 486.5,343.5 C 471.009,344.496 455.342,344.83 439.5,344.5C 439.831,371.005 439.498,397.339 438.5,423.5C 438.5,396.833 438.5,370.167 438.5,343.5C 454.5,343.5 470.5,343.5 486.5,343.5 Z"/></g>
<g><path style="opacity:0.727" fill="#c4c9d2" d="M 189.5,343.5 C 189.5,343.833 189.5,344.167 189.5,344.5C 189.5,354.5 189.5,364.5 189.5,374.5C 206.675,374.17 223.675,374.503 240.5,375.5C 223.167,375.5 205.833,375.5 188.5,375.5C 188.172,364.654 188.506,353.987 189.5,343.5 Z"/></g>
<g><path style="opacity:0.651" fill="#cdd1d8" d="M 315.5,382.5 C 314.567,397.138 314.234,411.804 314.5,426.5C 313.339,413.006 313.173,399.34 314,385.5C 314.232,384.263 314.732,383.263 315.5,382.5 Z"/></g>
<g><path style="opacity:0.724" fill="#c4c9d2" d="M 134.5,435.5 C 169.809,436.474 205.142,436.807 240.5,436.5C 206.336,437.664 172.002,437.831 137.5,437C 136.263,436.768 135.263,436.268 134.5,435.5 Z"/></g>
<g><path style="opacity:0.723" fill="#c4c9d2" d="M 321.5,435.5 C 356.809,436.474 392.142,436.807 427.5,436.5C 393.336,437.664 359.002,437.831 324.5,437C 323.263,436.768 322.263,436.268 321.5,435.5 Z"/></g>
</svg>
