<?xml version="1.0" standalone="no"?>
<!DOCTYPE svg PUBLIC "-//W3C//DTD SVG 20010904//EN"
 "http://www.w3.org/TR/2001/REC-SVG-20010904/DTD/svg10.dtd">
<svg version="1.0" xmlns="http://www.w3.org/2000/svg"
 width="412.000000pt" height="401.000000pt" viewBox="0 0 412.000000 401.000000"
 preserveAspectRatio="xMidYMid meet">

<g transform="translate(0.000000,401.000000) scale(0.100000,-0.100000)"
fill="#ffffff" stroke="none">
<path d="M1955 3973 c-643 -32 -1239 -377 -1590 -921 -100 -156 -211 -421 
-256 -611 -68 -293 -68 -633 1 -924 46 -195 154 -452 255 -609 254 -394 648
-695 1090 -832 218 -68 242 -71 595 -71 353 0 377 3 595 71 442 137 836 438
1090 832 62 98 156 293 199 419 144 420 145 886 1 1303 -146 423 -409 760
-795 1020 -329 221 -778 344 -1185 323z m315 -507 c181 -30 292 -67 464 -153
274 -138 488 -348 643 -633 232 -423 232 -977 0 -1400 -132 -243 -292 -417
-517 -562 -250 -162 -507 -238 -810 -238 -309 0 -570 79 -825 248 -214 142
-375 318 -502 552 -232 423 -232 977 0 1400 183 335 446 566 807 708 69 27
194 59 315 81 79 14 331 12 425 -3z"/>
<path d="M1865 3084 c-304 -47 -565 -215 -745 -479 -129 -190 -185 -379 -185
-625 0 -292 83 -516 277 -746 110 -132 306 -260 483 -317 133 -43 192 -51 355
-51 163 0 222 8 355 51 329 106 603 380 708 708 40 125 52 209 52 355 0 246
-56 435 -185 625 -93 136 -172 215 -304 304 -236 160 -518 221 -811 175z m349
-500 c266 -68 459 -322 459 -604 0 -285 -190 -533 -464 -606 -135 -36 -315
-17 -438 46 -214 110 -344 322 -344 560 1 148 49 284 140 395 158 193 401 272
647 209z"/>
<path d="M1998 2221 c-21 -4 -58 -21 -84 -37 -161 -100 -136 -365 41 -434 42
-17 153 -16 195 2 92 39 143 121 142 228 0 72 -11 109 -48 158 -47 61 -160
100 -246 83z"/>
</g>
</svg>
