<?xml version="1.0" standalone="no"?>
<!DOCTYPE svg PUBLIC "-//W3C//DTD SVG 20010904//EN"
 "http://www.w3.org/TR/2001/REC-SVG-20010904/DTD/svg10.dtd">
<svg version="1.0" xmlns="http://www.w3.org/2000/svg"
 width="358.000000pt" height="362.000000pt" viewBox="0 0 358.000000 362.000000"
 preserveAspectRatio="xMidYMid meet">

<g transform="translate(0.000000,362.000000) scale(0.100000,-0.100000)"
 stroke="none">
<path fill="#ff5194" d="M1598 3560 c-164 -29 -283 -154 -309 -322 -6 -39 -9 -595 -7 -1463
l3 -1400 23 -57 c45 -110 124 -186 236 -225 42 -15 83 -18 241 -18 173 1 195
3 247 23 110 44 186 124 225 236 17 48 18 131 18 1486 0 1355 -1 1438 -18
1486 -39 113 -116 193 -225 235 -49 19 -81 22 -222 25 -91 2 -186 -1 -212 -6z"/>
<path fill="#0affba" d="M2848 3060 c-164 -29 -283 -154 -309 -322 -6 -39 -9 -504 -7 -1213
l3 -1150 23 -57 c45 -110 124 -186 236 -225 42 -15 83 -18 241 -18 173 1 195
3 247 23 110 44 186 124 225 236 17 48 18 121 18 1236 0 1115 -1 1188 -18
1236 -39 113 -116 193 -225 235 -49 19 -81 22 -222 25 -91 2 -186 -1 -212 -6z"/>
<path fill="#0affba" d="M348 2060 c-164 -29 -283 -153 -309 -323 -6 -38 -9 -320 -7 -713 l3
-649 23 -57 c45 -110 124 -186 236 -225 42 -15 83 -18 241 -18 173 1 195 3
247 23 110 44 186 124 225 236 17 47 18 103 18 736 0 633 -1 689 -18 736 -39
113 -116 193 -225 235 -49 19 -81 22 -222 25 -91 2 -186 -1 -212 -6z"/>
</g> 
</svg>
