<?xml version="1.0" encoding="UTF-8"?>
<!DOCTYPE svg PUBLIC "-//W3C//DTD SVG 1.1//EN" "http://www.w3.org/Graphics/SVG/1.1/DTD/svg11.dtd">
<svg xmlns="http://www.w3.org/2000/svg" version="1.1" width="459px" height="405px" style="shape-rendering:geometricPrecision; text-rendering:geometricPrecision; image-rendering:optimizeQuality; fill-rule:evenodd; clip-rule:evenodd" xmlns:xlink="http://www.w3.org/1999/xlink">
<g><path style="opacity:0.998" fill="#f885e8" d="M 266.5,327.5 C 241.167,326.167 215.833,326.167 190.5,327.5C 142.335,326.667 94.0017,326.167 45.5,326C 23,320.833 9.16667,307 4,284.5C 3.33333,204.167 3.33333,123.833 4,43.5C 9.16667,21 23,7.16667 45.5,2C 167.5,1.33333 289.5,1.33333 411.5,2C 434.004,7.17054 447.837,21.0039 453,43.5C 453.667,123.833 453.667,204.167 453,284.5C 447.833,307 434,320.833 411.5,326C 362.998,326.167 314.665,326.667 266.5,327.5 Z"/></g>
<g><path style="opacity:1" fill="#23232e" d="M 53.5,51.5 C 170.167,51.5 286.833,51.5 403.5,51.5C 403.5,109.833 403.5,168.167 403.5,226.5C 286.833,226.5 170.167,226.5 53.5,226.5C 53.5,168.167 53.5,109.833 53.5,51.5 Z"/></g>
<g><path style="opacity:1" fill="#00fff2" d="M 266.5,327.5 C 269.73,335.297 272.397,343.297 274.5,351.5C 295.169,351.333 315.836,351.5 336.5,352C 350.675,357.807 356.175,368.307 353,383.5C 350.5,392.667 344.667,398.5 335.5,401C 264.167,401.667 192.833,401.667 121.5,401C 112.788,398.623 106.955,393.123 104,384.5C 100.911,369.176 106.411,358.343 120.5,352C 141.164,351.5 161.831,351.333 182.5,351.5C 184.967,343.433 187.633,335.433 190.5,327.5C 215.833,326.167 241.167,326.167 266.5,327.5 Z"/></g>
</svg>
 