<?xml version="1.0" standalone="no"?>
<!DOCTYPE svg PUBLIC "-//W3C//DTD SVG 20010904//EN"
 "http://www.w3.org/TR/2001/REC-SVG-20010904/DTD/svg10.dtd">
<svg version="1.0" xmlns="http://www.w3.org/2000/svg"
 width="466.000000pt" height="408.000000pt" viewBox="0 0 466.000000 408.000000"
 preserveAspectRatio="xMidYMid meet">

<g transform="translate(0.000000,408.000000) scale(0.100000,-0.100000)"
fill="#000000" stroke="none">

<!-- Add a rectangle shape to represent the screen area -->
<rect x="400" y="1300" width="3700" height="2248" fill="#FF0000" />

<!-- Original path for the monitor outline -->
<path d="M525 4043 c-56 -7 -146 -34 -183 -56 -131 -75 -206 -168 -247 -307
-19 -63 -20 -103 -20 -1255 0 -1152 1 -1192 20 -1255 51 -170 167 -288 340
-347 45 -15 127 -17 782 -20 l732 -4 -43 -122 -43 -122 -304 -5 c-326 -6 -328
-6 -400 -62 -107 -82 -110 -287 -5 -375 73 -62 -1 -58 1166 -58 l1065 0 47 23
c87 43 131 117 131 222 0 105 -43 178 -130 221 -46 23 -59 24 -352 29 l-303 5
-44 122 -43 122 732 4 c700 3 734 4 787 23 175 63 283 173 336 340 18 56 19
118 19 1259 0 1141 -1 1203 -19 1259 -52 167 -160 276 -336 340 -54 20 -78 21
-1855 22 -990 1 -1813 0 -1830 -3z m3545 -1368 l0 -875 -1750 0 -1750 0 0 875
0 875 1750 0 1750 0 0 -875z"/>

</g>
</svg>
