<?xml version="1.0" encoding="UTF-8"?>
<!DOCTYPE svg PUBLIC "-//W3C//DTD SVG 1.1//EN" "http://www.w3.org/Graphics/SVG/1.1/DTD/svg11.dtd">
<svg xmlns="http://www.w3.org/2000/svg" version="1.1" width="513px" height="384px" style="shape-rendering:geometricPrecision; text-rendering:geometricPrecision; image-rendering:optimizeQuality; fill-rule:evenodd; clip-rule:evenodd" xmlns:xlink="http://www.w3.org/1999/xlink">
<g><path style="opacity:0.998"  fill="#ff5194" d="M 504.5,44.5 C 505.167,90.3321 505.5,136.332 505.5,182.5C 505.65,230.86 505.15,279.194 504,327.5C 496.618,356.548 478.118,373.382 448.5,378C 319.5,378.667 190.5,378.667 61.5,378C 27.036,371.869 8.20268,351.369 5,316.5C 4.2128,226.279 4.37946,136.279 5.5,46.5C 5.08764,61.4987 10.0876,74.332 20.5,85C 92.1165,138.282 163.45,191.949 234.5,246C 247.534,255.64 260.867,255.973 274.5,247C 345.55,192.949 416.884,139.282 488.5,86C 500.652,74.852 505.986,61.0187 504.5,44.5 Z"/></g>
<g><path style="opacity:0.999" fill="#0affba" d="M 504.5,44.5 C 505.986,61.0187 500.652,74.852 488.5,86C 416.884,139.282 345.55,192.949 274.5,247C 260.867,255.973 247.534,255.64 234.5,246C 163.45,191.949 92.1165,138.282 20.5,85C 10.0876,74.332 5.08764,61.4987 5.5,46.5C 8.22787,22.9377 21.2279,8.77104 44.5,4C 184.833,3.33333 325.167,3.33333 465.5,4C 487.89,8.55532 500.89,22.0553 504.5,44.5 Z"/></g>
</svg>
