<?xml version="1.0" encoding="UTF-8"?>
<!DOCTYPE svg PUBLIC "-//W3C//DTD SVG 1.1//EN" "http://www.w3.org/Graphics/SVG/1.1/DTD/svg11.dtd">
<svg xmlns="http://www.w3.org/2000/svg" version="1.1" width="507px" height="412px" style="shape-rendering:geometricPrecision; text-rendering:geometricPrecision; image-rendering:optimizeQuality; fill-rule:evenodd; clip-rule:evenodd" xmlns:xlink="http://www.w3.org/1999/xlink">
<g><path style="opacity:0.998" fill="#0affba" d="M 171.5,3.5 C 193.568,3.7286 203.401,14.7286 201,36.5C 197.375,48.3173 189.375,54.6506 177,55.5C 176.667,119.833 176.333,184.167 176,248.5C 161.749,271.333 147.749,294.333 134,317.5C 129.628,328.067 127.294,339.067 127,350.5C 88.5279,361.412 58.1946,350.412 36,317.5C 29.5332,305.3 26.0332,292.3 25.5,278.5C 26.2484,204.874 26.5818,131.207 26.5,57.5C 26.3918,56.5581 26.0585,55.7247 25.5,55C 14.1359,53.9019 6.30254,48.0685 2,37.5C -1.08882,22.1762 4.41118,11.3428 18.5,5C 69.6683,4.83277 120.668,4.33277 171.5,3.5 Z M 77.5,54.5 C 93.7442,54.1752 109.911,54.5086 126,55.5C 126.777,79.9527 126.61,104.453 125.5,129C 109.259,129.824 93.0925,129.658 77,128.5C 76.1772,103.761 76.3439,79.0943 77.5,54.5 Z"/></g>
<g><path style="opacity:1" fill="#ff5194" d="M 406.5,180.5 C 406.427,182.027 407.094,183.027 408.5,183.5C 415.222,193.564 421.556,203.898 427.5,214.5C 427.427,216.027 428.094,217.027 429.5,217.5C 433.665,223.158 437.332,229.158 440.5,235.5C 440.427,237.027 441.094,238.027 442.5,238.5C 449.222,248.564 455.556,258.898 461.5,269.5C 461.427,271.027 462.094,272.027 463.5,272.5C 467.665,278.158 471.332,284.158 474.5,290.5C 474.427,292.027 475.094,293.027 476.5,293.5C 481.892,301.265 487.058,309.265 492,317.5C 494.735,322.299 496.902,327.299 498.5,332.5C 498.41,335.152 499.076,337.485 500.5,339.5C 504.788,366.758 494.788,386.924 470.5,400C 467.5,401 464.5,402 461.5,403C 416.537,404.154 371.537,404.654 326.5,404.5C 282.763,404.497 239.096,404.164 195.5,403.5C 193.485,402.076 191.152,401.41 188.5,401.5C 174.544,397.046 164.044,388.379 157,375.5C 151.726,363.832 150.226,351.832 152.5,339.5C 153.924,337.485 154.59,335.152 154.5,332.5C 156.098,327.299 158.265,322.299 161,317.5C 165.942,309.265 171.108,301.265 176.5,293.5C 177.906,293.027 178.573,292.027 178.5,290.5C 181.668,284.158 185.335,278.158 189.5,272.5C 190.906,272.027 191.573,271.027 191.5,269.5C 197.444,258.898 203.778,248.564 210.5,238.5C 211.906,238.027 212.573,237.027 212.5,235.5C 215.668,229.158 219.335,223.158 223.5,217.5C 224.906,217.027 225.573,216.027 225.5,214.5C 231.444,203.898 237.778,193.564 244.5,183.5C 245.906,183.027 246.573,182.027 246.5,180.5C 247.723,177.726 249.223,175.059 251,172.5C 251.5,133.168 251.667,93.8347 251.5,54.5C 239.67,54.1771 231.503,48.5105 227,37.5C 223.911,22.1762 229.411,11.3428 243.5,5C 298.833,4.33333 354.167,4.33333 409.5,5C 425.687,12.8681 430.52,25.3681 424,42.5C 418.954,51.0354 411.454,55.0354 401.5,54.5C 401.333,93.8347 401.5,133.168 402,172.5C 403.777,175.059 405.277,177.726 406.5,180.5 Z M 301.5,54.5 C 318.167,54.5 334.833,54.5 351.5,54.5C 351.333,98.5013 351.5,142.501 352,186.5C 364.997,209.166 378.497,231.499 392.5,253.5C 348.833,254.833 305.167,254.833 261.5,253.5C 274.866,231.297 288.033,208.964 301,186.5C 301.5,142.501 301.667,98.5013 301.5,54.5 Z"/></g>
<g><path style="opacity:0.518" fill="#c898d7" d="M 246.5,180.5 C 246.573,182.027 245.906,183.027 244.5,183.5C 244.427,181.973 245.094,180.973 246.5,180.5 Z"/></g>
<g><path style="opacity:0.522" fill="#c898d7" d="M 406.5,180.5 C 407.906,180.973 408.573,181.973 408.5,183.5C 407.094,183.027 406.427,182.027 406.5,180.5 Z"/></g>
<g><path style="opacity:0.529" fill="#c796d7" d="M 225.5,214.5 C 225.573,216.027 224.906,217.027 223.5,217.5C 223.427,215.973 224.094,214.973 225.5,214.5 Z"/></g>
<g><path style="opacity:0.522" fill="#c796d7" d="M 427.5,214.5 C 428.906,214.973 429.573,215.973 429.5,217.5C 428.094,217.027 427.427,216.027 427.5,214.5 Z"/></g>
<g><path style="opacity:0.514" fill="#c899d8" d="M 212.5,235.5 C 212.573,237.027 211.906,238.027 210.5,238.5C 210.427,236.973 211.094,235.973 212.5,235.5 Z"/></g>
<g><path style="opacity:0.506" fill="#c899d8" d="M 440.5,235.5 C 441.906,235.973 442.573,236.973 442.5,238.5C 441.094,238.027 440.427,237.027 440.5,235.5 Z"/></g>
<g><path style="opacity:0.525" fill="#c797d7" d="M 191.5,269.5 C 191.573,271.027 190.906,272.027 189.5,272.5C 189.427,270.973 190.094,269.973 191.5,269.5 Z"/></g>
<g><path style="opacity:0.51" fill="#c797d7" d="M 461.5,269.5 C 462.906,269.973 463.573,270.973 463.5,272.5C 462.094,272.027 461.427,271.027 461.5,269.5 Z"/></g>
<g><path style="opacity:0.506" fill="#c99ad8" d="M 178.5,290.5 C 178.573,292.027 177.906,293.027 176.5,293.5C 176.427,291.973 177.094,290.973 178.5,290.5 Z"/></g>
<g><path style="opacity:0.502" fill="#c99ad8" d="M 474.5,290.5 C 475.906,290.973 476.573,291.973 476.5,293.5C 475.094,293.027 474.427,292.027 474.5,290.5 Z"/></g>
<g><path style="opacity:1" fill="#b272c8" d="M 154.5,332.5 C 154.59,335.152 153.924,337.485 152.5,339.5C 152.41,336.848 153.076,334.515 154.5,332.5 Z"/></g>
<g><path style="opacity:0.976" fill="#b272c8" d="M 498.5,332.5 C 499.924,334.515 500.59,336.848 500.5,339.5C 499.076,337.485 498.41,335.152 498.5,332.5 Z"/></g>
<g><path style="opacity:1" fill="#b171c7" d="M 188.5,401.5 C 191.152,401.41 193.485,402.076 195.5,403.5C 192.848,403.59 190.515,402.924 188.5,401.5 Z"/></g>
</svg>
