<?xml version="1.0" standalone="no"?>
<!DOCTYPE svg PUBLIC "-//W3C//DTD SVG 20010904//EN"
 "http://www.w3.org/TR/2001/REC-SVG-20010904/DTD/svg10.dtd">
<svg version="1.0" xmlns="http://www.w3.org/2000/svg"
 width="600.000000pt" height="600.000000pt" viewBox="0 0 650.000000 620.000000"
 preserveAspectRatio="xMidYMid meet">

<g transform="translate(-170.000000,630.000000) scale(0.130000,-0.130000)"
 stroke="#ffffff" stroke-width="20">
<path fill="#ffffff" d="M3745 4810 c-282 -49 -461 -322 -390 -595 83 -317 451 -459 729 -281
205 131 276 413 159 629 -96 176 -306 280 -498 247z m224 -59 c280 -107 381
-442 206 -680 -84 -113 -210 -176 -355 -176 -145 0 -271 63 -355 176 -220 299
6 725 375 705 42 -2 98 -13 129 -25z"/>
<path fill="#ffffff" d="M3630 4335 l0 -185 190 0 190 0 0 185 0 185 -190 0 -190 0 0 -185z"/>
<path fill="#ffffff" d="M2105 3870 c-107 -23 -208 -81 -271 -154 -79 -90 -133 -257 -119
-365 35 -255 231 -431 480 -431 249 0 445 176 480 431 14 108 -40 275 -119
365 -46 54 -131 110 -204 135 -65 23 -188 32 -247 19z m201 -44 c219 -58 363
-278 326 -497 -41 -241 -269 -408 -502 -369 -194 33 -339 177 -372 369 -37
216 106 437 321 497 62 17 165 17 227 0z"/>
<path fill="#ffffff" d="M2010 3457 l0 -122 93 -93 92 -92 93 93 92 92 0 123 0 122 -185 0
-185 0 0 -123z"/>
<path fill="#ffffff" d="M5355 3870 c-107 -23 -208 -81 -271 -154 -79 -90 -133 -257 -119
-365 35 -255 231 -431 480 -431 249 0 445 176 480 431 14 108 -40 275 -119
365 -46 54 -131 110 -204 135 -65 23 -188 32 -247 19z m201 -44 c219 -58 363
-278 326 -497 -41 -241 -269 -408 -502 -369 -194 33 -339 177 -372 369 -37
216 106 437 321 497 62 17 165 17 227 0z"/>
<path fill="#ffffff" d="M2039 1976 c-274 -96 -400 -399 -275 -661 57 -120 147 -201 274 -247
80 -29 234 -29 314 0 127 46 217 127 274 247 126 265 -4 571 -283 664 -89 30
-215 29 -304 -3z m242 -20 c185 -39 319 -179 351 -365 45 -263 -167 -511 -437
-511 -270 0 -482 248 -437 511 32 184 166 325 346 364 79 17 98 17 177 1z"/>
<path fill="#ffffff" d="M1950 1706 c0 -2 55 -100 123 -218 l122 -215 120 210 c66 116 122
214 123 219 2 4 -107 8 -242 8 -135 0 -246 -2 -246 -4z"/>
<path fill="#ffffff" d="M5289 1976 c-274 -96 -400 -399 -275 -661 57 -120 147 -201 274 -247
80 -29 234 -29 314 0 127 46 217 127 274 247 126 265 -4 571 -283 664 -89 30
-215 29 -304 -3z m242 -20 c185 -39 319 -179 351 -365 45 -263 -167 -511 -437
-511 -270 0 -482 248 -437 511 32 184 166 325 346 364 79 17 98 17 177 1z"/>
<path fill="#ffffff" d="M3745 1060 c-328 -57 -505 -414 -348 -703 158 -289 564 -338 779 -95
265 302 79 767 -321 801 -33 3 -82 1 -110 -3z m224 -59 c280 -107 381 -442
206 -680 -84 -113 -210 -176 -355 -176 -145 0 -271 63 -355 176 -220 299 6
725 375 705 42 -2 98 -13 129 -25z"/>
</g>
</svg>
