<?xml version="1.0" standalone="no"?>
<!DOCTYPE svg PUBLIC "-//W3C//DTD SVG 20010904//EN"
 "http://www.w3.org/TR/2001/REC-SVG-20010904/DTD/svg10.dtd">
<svg version="1.0" xmlns="http://www.w3.org/2000/svg"
 width="535.000000pt" height="467.000000pt" viewBox="0 0 535.000000 467.000000"
 preserveAspectRatio="xMidYMid meet">

<g transform="translate(0.000000,467.000000) scale(0.100000,-0.100000)"
fill="#ffffff" stroke="none">
<path d="M692 3496 l-659 -1153 661 -1157 660 -1156 1317 0 1317 0 661 1156
661 1156 -658 1152 -658 1151 -1321 3 -1322 2 -659 -1154z m3318 131 c168
-292 402 -701 521 -908 l216 -377 -295 -513 c-162 -283 -386 -674 -498 -869
-111 -195 -214 -374 -228 -398 l-26 -42 -1031 2 -1032 3 -191 335 c-106 184
-335 584 -510 888 -174 305 -322 564 -328 577 -9 20 51 128 497 906 279 486
513 894 521 907 l14 22 1033 0 1032 0 305 -533z"/>
</g>
</svg> 
