<?xml version="1.0" standalone="no"?>
<!DOCTYPE svg PUBLIC "-//W3C//DTD SVG 20010904//EN"
 "http://www.w3.org/TR/2001/REC-SVG-20010904/DTD/svg10.dtd">
<svg version="1.0" xmlns="http://www.w3.org/2000/svg" width="419.000000pt" height="406.000000pt" viewBox="0 0 419.000000 406.000000" preserveAspectRatio="xMidYMid meet">
  <circle cx="209.5" cy="203" r="190" fill="#000000" />
  <g transform="translate(0.000000,406.000000) scale(0.100000,-0.100000)"  fill="#000000" stroke="none">
    <path d="M2005 4034 c-316 -19 -606 -100 -870 -241 -485 -260 -859 -750 -986 -1291 -70 -300 -70 -624 0 -924 127 -541 501 -1031 986 -1291 298 -159 616 -239 955 -239 279 0 504 45 770 152 442 180 813 532 1026 975 200 416 250 877 144 1329 -112 478 -414 913 -834 1199 -171 117 -442 233 -661 282 -146 33 -401 56 -530 49z m335 -1244 l0 -250 -250 0 -250 0 0 250 0 250 250 0 250 0 0 -250z m0 -935 l0 -435 125 0 125 0 0 -190 0 -190 -500 0 -500 0 0 190 0 190 185 0 185 0 0 245 0 245 -185 0 -185 0 0 190 0 190 375 0 375 0 0 -435z" fill="#0affba" />
  </g>
</svg> 


