<?xml version="1.0" standalone="no"?>
<!DOCTYPE svg PUBLIC "-//W3C//DTD SVG 20010904//EN"
 "http://www.w3.org/TR/2001/REC-SVG-20010904/DTD/svg10.dtd">
<svg version="1.0" xmlns="http://www.w3.org/2000/svg"
 width="437.000000pt" height="571.000000pt" viewBox="0 0 437.000000 571.000000"
 preserveAspectRatio="xMidYMid meet">

<g transform="translate(0.000000,571.000000) scale(0.100000,-0.100000)"
fill="#ffffff" stroke="none">
<path d="M362 4993 c-40 -357 -115 -1026 -166 -1488 -52 -462 -98 -877 -101
-922 l-8 -83 962 0 c912 0 962 -1 957 -17 -2 -10 -12 -56 -21 -103 -25 -129
-160 -750 -190 -875 -32 -132 -124 -564 -205 -955 -32 -157 -68 -327 -80 -379
-11 -51 -19 -95 -17 -98 2 -2 47 47 100 109 135 160 592 703 987 1173 185 220
563 670 840 1000 278 330 582 693 677 806 l173 206 1 349 0 349 -870 3 c-541
1 -871 6 -871 12 0 5 27 123 59 262 32 139 84 377 116 528 31 151 81 381 111
511 30 129 54 241 54 247 0 9 -282 12 -1218 12 l-1218 0 -72 -647z m1851 65
c-8 -35 -32 -146 -54 -248 -47 -219 -126 -576 -215 -967 -35 -155 -64 -285
-64 -288 0 -3 419 -5 930 -5 512 0 930 -2 930 -5 0 -3 -206 -249 -458 -548
-692 -820 -826 -980 -834 -991 -19 -28 -14 13 17 154 87 395 175 815 175 836
l0 24 -986 0 -986 0 5 33 c3 17 15 120 27 227 11 107 50 458 85 780 56 501
115 1049 115 1058 0 1 299 2 664 2 l664 0 -15 -62z"/>
</g>
</svg>
