<?xml version="1.0" encoding="UTF-8"?>
<!DOCTYPE svg PUBLIC "-//W3C//DTD SVG 1.1//EN" "http://www.w3.org/Graphics/SVG/1.1/DTD/svg11.dtd">
<svg xmlns="http://www.w3.org/2000/svg" version="1.1" width="465px" height="359px" style="shape-rendering:geometricPrecision; text-rendering:geometricPrecision; image-rendering:optimizeQuality; fill-rule:evenodd; clip-rule:evenodd" xmlns:xlink="http://www.w3.org/1999/xlink">
<g><path style="opacity:0.998" fill="#f885e8" d="M 50.5,3.5 C 171.167,3.33333 291.834,3.5 412.5,4C 437,8.5 451.5,23 456,47.5C 456.667,134.833 456.667,222.167 456,309.5C 451.401,334.432 436.568,348.932 411.5,353C 291.5,353.667 171.5,353.667 51.5,353C 26.452,348.952 11.6186,334.452 7,309.5C 6.33333,222.167 6.33333,134.833 7,47.5C 11.6798,22.9875 26.1798,8.3208 50.5,3.5 Z M 351.5,228.5 C 346.833,228.5 342.167,228.5 337.5,228.5C 336.438,227.425 336.438,226.425 337.5,225.5C 342.025,223.314 346.692,222.981 351.5,224.5C 353.934,226.147 353.934,227.48 351.5,228.5 Z"/></g>
<g><path style="opacity:1"  fill="#00fff2" d="M 193.5,121.5 C 193.608,126.87 193.275,132.203 192.5,137.5C 188.118,157.548 176.118,170.548 156.5,176.5C 150.203,177.32 143.869,177.653 137.5,177.5C 113.956,173.123 99.7894,159.123 95,135.5C 93.3026,109.39 104.469,91.2234 128.5,81C 162.691,74.7483 184.357,88.2483 193.5,121.5 Z"/></g>
<g><path style="opacity:1"  fill="#00fff2" d="M 291.5,103.5 C 326.168,103.333 360.835,103.5 395.5,104C 402.412,104.745 406.079,108.578 406.5,115.5C 406.415,122.845 402.748,127.011 395.5,128C 360.833,128.667 326.167,128.667 291.5,128C 284.696,126.274 281.362,121.774 281.5,114.5C 282.467,108.539 285.8,104.872 291.5,103.5 Z"/></g>
<g><path style="opacity:1"  fill="#00fff2" d="M 193.5,121.5 C 194.163,123.473 194.496,125.639 194.5,128C 194.672,131.477 194.006,134.644 192.5,137.5C 193.275,132.203 193.608,126.87 193.5,121.5 Z"/></g>
<g><path style="opacity:1"  fill="#00fff2" d="M 291.5,153.5 C 326.168,153.333 360.835,153.5 395.5,154C 402.412,154.745 406.079,158.578 406.5,165.5C 406.415,172.845 402.748,177.011 395.5,178C 360.833,178.667 326.167,178.667 291.5,178C 284.696,176.274 281.362,171.774 281.5,164.5C 282.467,158.539 285.8,154.872 291.5,153.5 Z"/></g>
<g><path style="opacity:1"  fill="#00fff2" d="M 156.5,176.5 C 156.082,177.222 155.416,177.722 154.5,178C 148.651,178.818 142.985,178.652 137.5,177.5C 143.869,177.653 150.203,177.32 156.5,176.5 Z"/></g>
<g><path style="opacity:0.987" fill="#00fff2" d="M 351.5,228.5 C 353.934,227.48 353.934,226.147 351.5,224.5C 346.692,222.981 342.025,223.314 337.5,225.5C 336.438,226.425 336.438,227.425 337.5,228.5C 320.777,228.941 304.11,228.441 287.5,227C 280.747,220.674 280.08,213.841 285.5,206.5C 287.22,205.066 289.22,204.233 291.5,204C 326.167,203.333 360.833,203.333 395.5,204C 405.365,206.514 408.532,212.681 405,222.5C 403.773,224.726 401.939,226.226 399.5,227C 383.557,228.438 367.557,228.938 351.5,228.5 Z M 351.5,228.5 C 346.833,228.5 342.167,228.5 337.5,228.5C 336.438,227.425 336.438,226.425 337.5,225.5C 342.025,223.314 346.692,222.981 351.5,224.5C 353.934,226.147 353.934,227.48 351.5,228.5 Z"/></g>
<g><path style="opacity:1" fill="#00fff2" d="M 222.5,277.5 C 170.167,278.833 117.833,278.833 65.5,277.5C 60.2468,276.246 57.5801,272.913 57.5,267.5C 57.2834,262.77 57.6167,258.103 58.5,253.5C 64.9884,225.182 82.6551,208.682 111.5,204C 133.167,203.333 154.833,203.333 176.5,204C 209.083,210.084 227.416,229.584 231.5,262.5C 232.278,269.969 229.278,274.969 222.5,277.5 Z"/></g>
<g><path style="opacity:1" fill="#00fff2" d="M 58.5,253.5 C 57.6167,258.103 57.2834,262.77 57.5,267.5C 56.8367,265.359 56.5034,263.025 56.5,260.5C 56.5286,257.731 57.1952,255.397 58.5,253.5 Z"/></g>
<g><path style="opacity:1" fill="#00fff2" d="M 65.5,277.5 C 117.833,278.833 170.167,278.833 222.5,277.5C 221.737,278.268 220.737,278.768 219.5,279C 169.167,279.667 118.833,279.667 68.5,279C 67.2625,278.768 66.2625,278.268 65.5,277.5 Z"/></g>
</svg>

secondsvgprofile
<svg xmlns="http://www.w3.org/2000/svg" width="514" height="411" viewBox="0 0 514 411" version="1.1">
  <path d="" stroke="none" fill="#00fff2" fill-rule="evenodd" />
  <path d="M 368.774 160.083 C 362.558 160.994, 358.576 163.085, 356.762 166.392 C 356.126 167.551, 355.323 173.471, 354.979 179.547 C 354.511 187.817, 353.869 191.415, 352.427 193.864 C 349.977 198.024, 343.044 202.648, 337.971 203.505 C 333.920 204.189, 330.159 202.795, 319.093 196.505 C 311.248 192.046, 306.539 193.440, 299.343 202.352 C 289.035 215.118, 281.389 229.167, 278.480 240.684 C 276.202 249.702, 277.606 252.517, 287.158 258.081 C 291.196 260.434, 295.731 263.669, 297.236 265.270 C 302.686 271.069, 303.170 281.268, 298.272 287.089 C 296.875 288.749, 292 292.565, 287.438 295.569 C 276.793 302.580, 275.733 305.002, 279.007 314.836 C 285.713 334.976, 301.774 358.818, 308.834 359.111 C 314.193 359.333, 315.986 358.797, 324.453 354.440 C 333.752 349.655, 337.008 349.141, 342.768 351.548 C 351.537 355.211, 354.946 361.509, 354.978 374.101 C 355.006 385.144, 356.203 388.561, 360.860 390.900 C 371.966 396.479, 410.009 396.095, 417.781 390.326 C 422.056 387.152, 422.967 384.305, 423.007 374 C 423.061 360.089, 426.407 354.001, 435.681 350.940 C 441.274 349.094, 447.094 350.302, 455.172 354.985 C 467.201 361.960, 470.805 361.103, 480.707 348.911 C 487.886 340.073, 493.463 330.003, 497.631 318.356 C 502.487 304.788, 501.958 303.074, 490.608 295.600 C 480.503 288.945, 477.449 285.502, 476.611 279.821 C 475.268 270.716, 478.835 265.046, 490.034 258.480 C 500.126 252.563, 501.845 249.822, 499.993 242.594 C 497.808 234.068, 491.267 219.799, 486.241 212.591 C 476.379 198.449, 471.431 194, 465.566 194 C 464.102 194, 458.541 196.296, 453.208 199.103 C 444.825 203.515, 442.936 204.140, 439.246 203.724 C 434.186 203.154, 429.212 199.982, 425.980 195.266 C 423.978 192.344, 423.552 190.170, 423.022 180.176 C 422.682 173.754, 421.881 167.551, 421.242 166.392 C 419.352 162.959, 415.498 161.064, 408.287 160.021 C 400.243 158.858, 376.884 158.895, 368.774 160.083 M 382.176 240.036 C 369.876 242.554, 358.027 252.111, 353.895 262.847 C 350.787 270.923, 350.803 282.391, 353.933 290.758 C 357.073 299.151, 364.227 306.575, 373.392 310.949 C 379.553 313.889, 381.199 314.236, 388.892 314.216 C 396.282 314.197, 398.434 313.771, 404.102 311.205 C 413.023 307.167, 421.010 298.996, 424.092 290.754 C 427.176 282.509, 427.145 271.409, 424.015 263.039 C 418.177 247.429, 398.612 236.672, 382.176 240.036" stroke="none" fill="#00fff2" fill-rule="evenodd" />
  <path d="M 171.342 3.479 C 141.063 8.974, 113.346 29.567, 99.602 56.782 C 85.504 84.695, 85.506 119.341, 99.605 147.218 C 106.487 160.825, 120.223 176.324, 133.227 185.154 C 140.957 190.404, 154.187 196.314, 164.616 199.178 C 175.956 202.292, 201.946 202.321, 213.175 199.231 C 231.956 194.065, 245.590 186.255, 259.181 172.879 C 278.913 153.458, 289 129.482, 289 102 C 289 58.589, 261.083 20.303, 219.465 6.636 C 205.916 2.186, 185.756 0.864, 171.342 3.479 M 146.500 239.634 C 119.341 241.723, 92.007 251.155, 72.756 265.079 C 37.096 290.871, 17.328 327.263, 14.380 372.546 C 13.811 381.283, 13.984 383.174, 15.701 387.057 C 18.141 392.572, 23.170 397.718, 28.478 400.129 C 32.316 401.872, 39.444 401.957, 184.195 401.978 C 335.889 402, 335.889 402, 333.278 396.297 C 331.842 393.160, 330.458 388.410, 330.201 385.741 C 329.820 381.777, 329.438 381.003, 328.117 381.515 C 323.818 383.184, 315.156 385, 311.500 385 C 305.255 385, 296.315 382.313, 291.470 378.979 C 278.450 370.021, 260.617 342.060, 253.993 320.216 C 249.551 305.565, 252.771 291.963, 263.055 281.946 C 268.203 276.932, 268.203 276.932, 262.955 271.766 C 256.404 265.318, 253.191 258.458, 252.236 248.879 C 251.500 241.500, 251.500 241.500, 246.500 240.716 C 241.273 239.897, 155.194 238.965, 146.500 239.634" stroke="none" fill="#f885e8" fill-rule="evenodd" />
</svg>

3rdsvgprofile
<svg xmlns="http://www.w3.org/2000/svg" width="514" height="411" viewBox="0 0 514 411" version="1.1">
  <path d="" stroke="none" fill="#00fff2" fill-rule="evenodd" />
  <path d="M 368.774 160.083 C 362.558 160.994, 358.576 163.085, 356.762 166.392 C 356.126 167.551, 355.323 173.471, 354.979 179.547 C 354.511 187.817, 353.869 191.415, 352.427 193.864 C 349.977 198.024, 343.044 202.648, 337.971 203.505 C 333.920 204.189, 330.159 202.795, 319.093 196.505 C 311.248 192.046, 306.539 193.440, 299.343 202.352 C 289.035 215.118, 281.389 229.167, 278.480 240.684 C 276.202 249.702, 277.606 252.517, 287.158 258.081 C 291.196 260.434, 295.731 263.669, 297.236 265.270 C 302.686 271.069, 303.170 281.268, 298.272 287.089 C 296.875 288.749, 292 292.565, 287.438 295.569 C 276.793 302.580, 275.733 305.002, 279.007 314.836 C 285.713 334.976, 301.774 358.818, 308.834 359.111 C 314.193 359.333, 315.986 358.797, 324.453 354.440 C 333.752 349.655, 337.008 349.141, 342.768 351.548 C 351.537 355.211, 354.946 361.509, 354.978 374.101 C 355.006 385.144, 356.203 388.561, 360.860 390.900 C 371.966 396.479, 410.009 396.095, 417.781 390.326 C 422.056 387.152, 422.967 384.305, 423.007 374 C 423.061 360.089, 426.407 354.001, 435.681 350.940 C 441.274 349.094, 447.094 350.302, 455.172 354.985 C 467.201 361.960, 470.805 361.103, 480.707 348.911 C 487.886 340.073, 493.463 330.003, 497.631 318.356 C 502.487 304.788, 501.958 303.074, 490.608 295.600 C 480.503 288.945, 477.449 285.502, 476.611 279.821 C 475.268 270.716, 478.835 265.046, 490.034 258.480 C 500.126 252.563, 501.845 249.822, 499.993 242.594 C 497.808 234.068, 491.267 219.799, 486.241 212.591 C 476.379 198.449, 471.431 194, 465.566 194 C 464.102 194, 458.541 196.296, 453.208 199.103 C 444.825 203.515, 442.936 204.140, 439.246 203.724 C 434.186 203.154, 429.212 199.982, 425.980 195.266 C 423.978 192.344, 423.552 190.170, 423.022 180.176 C 422.682 173.754, 421.881 167.551, 421.242 166.392 C 419.352 162.959, 415.498 161.064, 408.287 160.021 C 400.243 158.858, 376.884 158.895, 368.774 160.083 M 382.176 240.036 C 369.876 242.554, 358.027 252.111, 353.895 262.847 C 350.787 270.923, 350.803 282.391, 353.933 290.758 C 357.073 299.151, 364.227 306.575, 373.392 310.949 C 379.553 313.889, 381.199 314.236, 388.892 314.216 C 396.282 314.197, 398.434 313.771, 404.102 311.205 C 413.023 307.167, 421.010 298.996, 424.092 290.754 C 427.176 282.509, 427.145 271.409, 424.015 263.039 C 418.177 247.429, 398.612 236.672, 382.176 240.036" stroke="none" fill="#00fff2" fill-rule="evenodd" />
  <path d="M 171.342 3.479 C 141.063 8.974, 113.346 29.567, 99.602 56.782 C 85.504 84.695, 85.506 119.341, 99.605 147.218 C 106.487 160.825, 120.223 176.324, 133.227 185.154 C 140.957 190.404, 154.187 196.314, 164.616 199.178 C 175.956 202.292, 201.946 202.321, 213.175 199.231 C 231.956 194.065, 245.590 186.255, 259.181 172.879 C 278.913 153.458, 289 129.482, 289 102 C 289 58.589, 261.083 20.303, 219.465 6.636 C 205.916 2.186, 185.756 0.864, 171.342 3.479 M 146.500 239.634 C 119.341 241.723, 92.007 251.155, 72.756 265.079 C 37.096 290.871, 17.328 327.263, 14.380 372.546 C 13.811 381.283, 13.984 383.174, 15.701 387.057 C 18.141 392.572, 23.170 397.718, 28.478 400.129 C 32.316 401.872, 39.444 401.957, 184.195 401.978 C 335.889 402, 335.889 402, 333.278 396.297 C 331.842 393.160, 330.458 388.410, 330.201 385.741 C 329.820 381.777, 329.438 381.003, 328.117 381.515 C 323.818 383.184, 315.156 385, 311.500 385 C 305.255 385, 296.315 382.313, 291.470 378.979 C 278.450 370.021, 260.617 342.060, 253.993 320.216 C 249.551 305.565, 252.771 291.963, 263.055 281.946 C 268.203 276.932, 268.203 276.932, 262.955 271.766 C 256.404 265.318, 253.191 258.458, 252.236 248.879 C 251.500 241.500, 251.500 241.500, 246.500 240.716 C 241.273 239.897, 155.194 238.965, 146.500 239.634" stroke="none" fill="#f885e8" fill-rule="evenodd" />
</svg>
