<svg xmlns="http://www.w3.org/2000/svg" width="514" height="411" viewBox="0 0 514 411" version="1.1">
  <path d="" stroke="none" fill="#00fff2" fill-rule="evenodd" />
  <path d="M 368.774 160.083 C 362.558 160.994, 358.576 163.085, 356.762 166.392 C 356.126 167.551, 355.323 173.471, 354.979 179.547 C 354.511 187.817, 353.869 191.415, 352.427 193.864 C 349.977 198.024, 343.044 202.648, 337.971 203.505 C 333.920 204.189, 330.159 202.795, 319.093 196.505 C 311.248 192.046, 306.539 193.440, 299.343 202.352 C 289.035 215.118, 281.389 229.167, 278.480 240.684 C 276.202 249.702, 277.606 252.517, 287.158 258.081 C 291.196 260.434, 295.731 263.669, 297.236 265.270 C 302.686 271.069, 303.170 281.268, 298.272 287.089 C 296.875 288.749, 292 292.565, 287.438 295.569 C 276.793 302.580, 275.733 305.002, 279.007 314.836 C 285.713 334.976, 301.774 358.818, 308.834 359.111 C 314.193 359.333, 315.986 358.797, 324.453 354.440 C 333.752 349.655, 337.008 349.141, 342.768 351.548 C 351.537 355.211, 354.946 361.509, 354.978 374.101 C 355.006 385.144, 356.203 388.561, 360.860 390.900 C 371.966 396.479, 410.009 396.095, 417.781 390.326 C 422.056 387.152, 422.967 384.305, 423.007 374 C 423.061 360.089, 426.407 354.001, 435.681 350.940 C 441.274 349.094, 447.094 350.302, 455.172 354.985 C 467.201 361.960, 470.805 361.103, 480.707 348.911 C 487.886 340.073, 493.463 330.003, 497.631 318.356 C 502.487 304.788, 501.958 303.074, 490.608 295.600 C 480.503 288.945, 477.449 285.502, 476.611 279.821 C 475.268 270.716, 478.835 265.046, 490.034 258.480 C 500.126 252.563, 501.845 249.822, 499.993 242.594 C 497.808 234.068, 491.267 219.799, 486.241 212.591 C 476.379 198.449, 471.431 194, 465.566 194 C 464.102 194, 458.541 196.296, 453.208 199.103 C 444.825 203.515, 442.936 204.140, 439.246 203.724 C 434.186 203.154, 429.212 199.982, 425.980 195.266 C 423.978 192.344, 423.552 190.170, 423.022 180.176 C 422.682 173.754, 421.881 167.551, 421.242 166.392 C 419.352 162.959, 415.498 161.064, 408.287 160.021 C 400.243 158.858, 376.884 158.895, 368.774 160.083 M 382.176 240.036 C 369.876 242.554, 358.027 252.111, 353.895 262.847 C 350.787 270.923, 350.803 282.391, 353.933 290.758 C 357.073 299.151, 364.227 306.575, 373.392 310.949 C 379.553 313.889, 381.199 314.236, 388.892 314.216 C 396.282 314.197, 398.434 313.771, 404.102 311.205 C 413.023 307.167, 421.010 298.996, 424.092 290.754 C 427.176 282.509, 427.145 271.409, 424.015 263.039 C 418.177 247.429, 398.612 236.672, 382.176 240.036" stroke="none" fill="#00fff2" fill-rule="evenodd" />
  <path d="M 171.342 3.479 C 141.063 8.974, 113.346 29.567, 99.602 56.782 C 85.504 84.695, 85.506 119.341, 99.605 147.218 C 106.487 160.825, 120.223 176.324, 133.227 185.154 C 140.957 190.404, 154.187 196.314, 164.616 199.178 C 175.956 202.292, 201.946 202.321, 213.175 199.231 C 231.956 194.065, 245.590 186.255, 259.181 172.879 C 278.913 153.458, 289 129.482, 289 102 C 289 58.589, 261.083 20.303, 219.465 6.636 C 205.916 2.186, 185.756 0.864, 171.342 3.479 M 146.500 239.634 C 119.341 241.723, 92.007 251.155, 72.756 265.079 C 37.096 290.871, 17.328 327.263, 14.380 372.546 C 13.811 381.283, 13.984 383.174, 15.701 387.057 C 18.141 392.572, 23.170 397.718, 28.478 400.129 C 32.316 401.872, 39.444 401.957, 184.195 401.978 C 335.889 402, 335.889 402, 333.278 396.297 C 331.842 393.160, 330.458 388.410, 330.201 385.741 C 329.820 381.777, 329.438 381.003, 328.117 381.515 C 323.818 383.184, 315.156 385, 311.500 385 C 305.255 385, 296.315 382.313, 291.470 378.979 C 278.450 370.021, 260.617 342.060, 253.993 320.216 C 249.551 305.565, 252.771 291.963, 263.055 281.946 C 268.203 276.932, 268.203 276.932, 262.955 271.766 C 256.404 265.318, 253.191 258.458, 252.236 248.879 C 251.500 241.500, 251.500 241.500, 246.500 240.716 C 241.273 239.897, 155.194 238.965, 146.500 239.634" stroke="none" fill="#f885e8" fill-rule="evenodd" />
</svg>
