<?xml version="1.0" standalone="no"?>
<!DOCTYPE svg PUBLIC "-//W3C//DTD SVG 20010904//EN"
 "http://www.w3.org/TR/2001/REC-SVG-20010904/DTD/svg10.dtd">
<svg version="1.0" xmlns="http://www.w3.org/2000/svg"
 width="386.000000pt" height="396.000000pt" viewBox="0 0 386.000000 396.000000"
 preserveAspectRatio="xMidYMid meet">
<g><path style="opacity:0.997" fill="#0affba" d="M 188.5,2.5 C 203.578,2.09374 213.078,9.09374 217,23.5C 217.667,83.8333 217.667,144.167 217,204.5C 214.157,223.186 203.324,231.019 184.5,228C 174.118,224.952 167.951,218.119 166,207.5C 165.333,146.167 165.333,84.8333 166,23.5C 169.205,11.7917 176.705,4.79175 188.5,2.5 Z"/></g>

<g transform="translate(0.000000,396.000000) scale(0.100000,-0.100000)"
fill="#ff5194" stroke="none">
<path d="M795 3396 c-61 -27 -247 -194 -312 -281 -13 -17 -37 -48 -54 -70
-244 -314 -369 -690 -369 -1105 0 -459 126 -828 405 -1185 190 -243 499 -468
795 -578 383 -142 821 -154 1225 -32 273 83 561 260 767 471 317 327 496 734 
527 1196 37 556 -158 1053 -573 1462 -110 108 -141 127 -219 133 -82 7 -128
-8 -185 -61 -58 -53 -82 -105 -82 -179 0 -81 24 -122 142 -240 384 -384 519
-845 393 -1343 -65 -257 -202 -488 -398 -669 -131 -121 -196 -167 -332 -234
-451 -222 -991 -180 -1395 107 -87 62 -271 250 -342 348 -154 215 -232 458
-245 759 -7 178 9 292 63 455 70 211 171 365 370 570 131 135 144 158 144 253
0 132 -107 237 -240 237 -30 -1 -68 -7 -85 -14z"/>
</g>
</svg>
