<?xml version="1.0" standalone="no"?>
<!DOCTYPE svg PUBLIC "-//W3C//DTD SVG 20010904//EN"
 "http://www.w3.org/TR/2001/REC-SVG-20010904/DTD/svg10.dtd">
<svg version="1.0" xmlns="http://www.w3.org/2000/svg"
 width="272.000000pt" height="340.000000pt" viewBox="0 0 272.000000 340.000000"
 preserveAspectRatio="xMidYMid meet">

<g transform="translate(0.000000,340.000000) scale(0.100000,-0.100000)"
fill="white" stroke="none">
<path d="M1155 3360 c-281 -46 -531 -174 -730 -374 -189 -191 -312 -426 -362
-689 -23 -124 -23 -361 0 -479 117 -588 597 -1020 1186 -1067 408 -32 781 111
1062 406 174 183 277 385 335 653 24 112 24 388 0 502 -95 444 -397 806 -809
969 -28 12 -101 34 -162 51 -100 27 -127 30 -290 33 -99 2 -202 0 -230 -5z
m205 -1301 l0 -1112 -77 7 c-279 24 -497 123 -695 314 -452 436 -452 1149 0
1584 98 94 196 163 305 213 128 59 294 100 425 104 l42 1 0 -1111z"/>
<path d="M448 573 c-47 -29 -53 -61 -53 -263 0 -269 1 -270 275 -270 274 0
270 -4 270 278 l0 204 -34 34 -34 34 -198 0 c-169 0 -203 -3 -226 -17z"/>
<path d="M1832 574 c-46 -32 -52 -60 -52 -256 0 -197 4 -216 53 -252 26 -19
44 -21 200 -24 194 -4 233 3 272 50 l26 31 -3 204 -3 205 -33 29 -32 29 -203
0 c-167 0 -206 -3 -225 -16z m412 -63 c14 -11 16 -42 16 -197 0 -171 -1 -184
-19 -194 -26 -13 -346 -13 -372 0 -18 10 -19 23 -19 194 0 139 3 186 13 194
27 22 355 24 381 3z"/>
</g>
</svg>
