<?xml version="1.0" standalone="no"?>
<!DOCTYPE svg PUBLIC "-//W3C//DTD SVG 20010904//EN"
 "http://www.w3.org/TR/2001/REC-SVG-20010904/DTD/svg10.dtd">
<svg version="1.0" xmlns="http://www.w3.org/2000/svg"
 width="385.000000pt" height="405.000000pt" viewBox="0 0 385.000000 405.000000"
 preserveAspectRatio="xMidYMid meet">

<g transform="translate(0.000000,405.000000) scale(0.100000,-0.100000)"
 stroke="none">

<path fill="#0affba"   d="M1860 4006 c-54 -15 -1444 -603 -1544 -653 -73 -37 -156 -111 -199
-180 -14 -22 -36 -73 -48 -113 -20 -68 -22 -86 -16 -259 7 -200 33 -396 87
-638 107 -486 305 -905 619 -1312 222 -287 561 -557 931 -739 l115 -57 115 0
115 0 115 57 c513 252 879 597 1186 1115 265 447 433 1035 451 1573 6 201 -1
249 -53 352 -35 70 -128 160 -204 198 -104 52 -1519 650 -1564 660 -50 12 -50
12 -106 -4z m590 -729 c267 -113 567 -240 668 -282 l183 -77 -6 -97 c-37 -588
-192 -1069 -486 -1508 -200 -298 -481 -550 -821 -737 l-68 -37 0 1480 0 1481
23 -9 c12 -5 240 -101 507 -214z"/>

</g> 
</svg>
