<?xml version="1.0" encoding="UTF-8"?>
<!DOCTYPE svg PUBLIC "-//W3C//DTD SVG 1.1//EN" "http://www.w3.org/Graphics/SVG/1.1/DTD/svg11.dtd">
<svg xmlns="http://www.w3.org/2000/svg" version="1.1" width="420px" height="395px" style="shape-rendering:geometricPrecision; text-rendering:geometricPrecision; image-rendering:optimizeQuality; fill-rule:evenodd; clip-rule:evenodd" xmlns:xlink="http://www.w3.org/1999/xlink">
<g><path style="opacity:0.982" fill="#ffffff" d="M 30.5,3.5 C 74.5013,3.33334 118.501,3.50001 162.5,4C 179.869,5.70217 189.702,15.2022 192,32.5C 192.667,73.1667 192.667,113.833 192,154.5C 189.738,169.43 181.238,178.596 166.5,182C 121.167,182.667 75.8333,182.667 30.5,182C 12.5015,178.205 3.33481,167.039 3,148.5C 2.08739,108.15 2.42073,67.8165 4,27.5C 8.01999,14.0896 16.8533,6.0896 30.5,3.5 Z"/></g>
<g><path style="opacity:0.981" fill="#ffffff" d="M 254.5,3.5 C 298.501,3.33334 342.501,3.50001 386.5,4C 406.104,8.11607 416.104,20.2827 416.5,40.5C 415.177,74.9972 415.177,109.497 416.5,144C 417.002,163.733 408.002,176.399 389.5,182C 343.833,182.667 298.167,182.667 252.5,182C 235.011,178.053 226.011,167.053 225.5,149C 225.137,108.529 225.637,68.0291 227,27.5C 231.386,13.9434 240.552,5.94338 254.5,3.5 Z"/></g>
<g><path style="opacity:0.878" fill="#ffffff" d="M 419.5,295.5 C 419.5,302.167 419.5,308.833 419.5,315.5C 418.167,317.5 418.167,319.5 419.5,321.5C 419.5,333.833 419.5,346.167 419.5,358.5C 416.839,378.16 405.839,390.16 386.5,394.5C 342.833,394.5 299.167,394.5 255.5,394.5C 239.7,392.828 228.867,384.494 223,369.5C 222.142,362.284 221.308,355.117 220.5,348C 221.047,309.545 221.88,271.045 223,232.5C 227.816,219.692 236.982,211.858 250.5,209C 297.5,208.333 344.5,208.333 391.5,209C 404.667,212.833 413.167,221.333 417,234.5C 418.106,254.962 418.94,275.295 419.5,295.5 Z M 256.5,219.5 C 298.835,219.333 341.168,219.5 383.5,220C 398,221.167 405.833,229 407,243.5C 407.667,281.833 407.667,320.167 407,358.5C 405.833,373 398,380.833 383.5,382C 341.167,382.667 298.833,382.667 256.5,382C 242,380.833 234.167,373 233,358.5C 232.333,320.167 232.333,281.833 233,243.5C 234.344,228.99 242.177,220.99 256.5,219.5 Z"/></g>
<g><path style="opacity:0.979" fill="#ffffff" d="M 31.5,212.5 C 75.1679,212.333 118.835,212.5 162.5,213C 179.831,214.663 189.664,224.163 192,241.5C 192.667,281.833 192.667,322.167 192,362.5C 189.84,376.995 181.673,386.161 167.5,390C 121.502,391.956 75.5019,391.956 29.5,390C 13.1255,386.433 4.29215,376.267 3,359.5C 2.11442,318.486 2.44776,277.486 4,236.5C 7.87673,222.328 17.0434,214.328 31.5,212.5 Z"/></g>
</svg>
